<svg width="50" height="50" viewBox="0 0 50 50" fill="none" xmlns="http://www.w3.org/2000/svg">
<rect width="50" height="50" rx="8" fill="#151515"/>
<path d="M33.2799 5.92145H30.857L33.3767 8.65571V9.95739H28.1871V8.43325H30.7064L28.1871 5.69898V4.396H33.2799V5.92145ZM27.1581 5.92145H24.7352L27.2549 8.65571V9.95739H22.0649V8.43325H24.5846L22.0649 5.69898V4.396H27.1581V5.92145ZM21.0963 5.98379H18.4818V8.36959H21.0963V9.95739H16.6233V4.396H21.0963V5.98379Z" fill="#E3E3E3"/>
<path d="M13.0606 42.294L10.4038 12.496H39.5961L36.937 42.2891L24.9821 45.6038L13.0606 42.294V42.294Z" fill="#1572B6"/>
<path d="M25.0002 43.0706L34.6599 40.3924L36.9325 14.9329H25.0002V43.0706Z" fill="#33A9DC"/>
<path d="M25 25.7285H29.8359L30.1703 21.9862H25V18.3315H34.1642L34.0766 19.312L33.1785 29.3828H25V25.7285Z" fill="white"/>
<path d="M25.0221 35.2197L25.006 35.2243L20.936 34.1251L20.6754 31.2103H17.0073L17.5195 36.9486L25.0054 39.0266L25.0224 39.0217V35.2197H25.0221Z" fill="#EBEBEB"/>
<path d="M29.5253 29.2281L29.085 34.1225L25.009 35.2227V39.025L32.5011 36.9486L32.5562 36.3311L33.1921 29.2281H29.5253Z" fill="white"/>
<path d="M25.0127 18.3315V21.9859H16.1851L16.1116 21.1646L15.9453 19.312L15.8577 18.3315H25.0127ZM24.9999 25.7288V29.3834H20.9813L20.9082 28.5622L20.7415 26.7092L20.6539 25.7288H24.9999Z" fill="#EBEBEB"/>
</svg>
