<svg width="50" height="50" viewBox="0 0 50 50" fill="none" xmlns="http://www.w3.org/2000/svg">
<rect width="50" height="50" rx="8" fill="#151515"/>
<path d="M19.7969 43.2812C23.1437 43.2812 25.8438 40.5812 25.8438 37.2344V31.1875H19.7969C16.45 31.1875 13.75 33.8875 13.75 37.2344C13.75 40.5812 16.45 43.2812 19.7969 43.2812Z" fill="#0ACF83"/>
<path d="M13.75 25.1406C13.75 21.7938 16.45 19.0938 19.7969 19.0938H25.8438V31.1875H19.7969C16.45 31.1875 13.75 28.4875 13.75 25.1406Z" fill="#A259FF"/>
<path d="M13.75 13.0469C13.75 9.7 16.45 7 19.7969 7H25.8438V19.0938H19.7969C16.45 19.0938 13.75 16.3937 13.75 13.0469Z" fill="#F24E1E"/>
<path d="M25.8438 7H31.8906C35.2375 7 37.9375 9.7 37.9375 13.0469C37.9375 16.3937 35.2375 19.0938 31.8906 19.0938H25.8438V7Z" fill="#FF7262"/>
<path d="M37.9375 25.1406C37.9375 28.4875 35.2375 31.1875 31.8906 31.1875C28.5438 31.1875 25.8438 28.4875 25.8438 25.1406C25.8438 21.7938 28.5438 19.0938 31.8906 19.0938C35.2375 19.0938 37.9375 21.7938 37.9375 25.1406Z" fill="#1ABCFE"/>
</svg>
