<svg width="50" height="50" viewBox="0 0 50 50" fill="none" xmlns="http://www.w3.org/2000/svg">
<rect width="50" height="50" rx="8" fill="#151515"/>
<path d="M13.1396 42.1786L10.5005 12.5781H39.4995L36.8578 42.174L24.9823 45.4661L13.1396 42.1786Z" fill="#E44D26"/>
<path d="M25 42.9498L34.5957 40.2893L36.8535 14.9988H25V42.9498Z" fill="#F16529"/>
<path d="M24.9999 25.9771H20.1958L19.8644 22.2592H24.9999V18.6288H15.8967L15.9834 19.603L16.8759 29.6072H24.9999V25.9771ZM24.9999 35.4052L24.9838 35.4094L20.941 34.3174L20.6824 31.4224H17.0379L17.5465 37.1226L24.9832 39.1871L24.9999 39.1822V35.4052Z" fill="#EBEBEB"/>
<path d="M13.1987 4.53381H15.0434V6.35688H16.7313V4.53381H18.5764V10.0535H16.7313V8.2052H15.0438V10.0535H13.1987V4.53381V4.53381ZM21.0022 6.36442H19.378V4.53381H24.4721V6.36442H22.8472V10.0535H21.0022V6.36442V6.36442ZM25.2806 4.53381H27.2041L28.3876 6.47336L29.5699 4.53381H31.4943V10.0535H29.6565V7.31763L28.3876 9.28014H28.3555L27.0856 7.31763V10.0535H25.2803V4.53381H25.2806ZM32.4127 4.53381H34.2581V8.22916H36.8526V10.0539H32.4127V4.53381V4.53381Z" fill="#EEEEEE"/>
<path d="M24.9875 25.9771V29.6072H29.4579L29.0366 34.3155L24.9875 35.4084V39.1852L32.4301 37.1226L32.4845 36.509L33.3377 26.9517L33.4263 25.9771H32.4478H24.9875ZM24.9875 18.6288V22.2592H33.7567L33.8292 21.4431L33.9949 19.603L34.0819 18.6288H24.9875Z" fill="white"/>
</svg>
