<svg width="50" height="50" viewBox="0 0 50 50" fill="none" xmlns="http://www.w3.org/2000/svg">
<rect width="50" height="50" rx="8" fill="#151515"/>
<path d="M14.5781 6.28906C10.1598 6.28906 6.57812 9.87078 6.57812 14.2891V34.4219C6.57812 38.8402 10.1598 42.4219 14.5781 42.4219H34.7109C39.1292 42.4219 42.7109 38.8402 42.7109 34.4219V14.2891C42.7109 9.87078 39.1292 6.28906 34.7109 6.28906H14.5781ZM25.6906 37.078C25.1573 38.1617 24.1392 38.8736 22.9596 39.2173C21.1469 39.6336 19.4131 39.3963 18.1233 38.6221C17.2601 38.0926 16.586 37.2774 16.1285 36.3383L18.8803 34.653C18.9043 34.6631 18.9766 34.7938 19.0731 34.9626C19.4241 35.5506 19.7267 35.9668 20.3216 36.2591C20.9061 36.4585 22.1892 36.586 22.6847 35.5575C22.9873 35.0343 22.8911 33.3525 22.8911 31.4918C22.8908 28.568 22.9044 25.6562 22.9044 22.7656H26.289C26.289 25.9453 26.3064 28.9568 26.289 32.0596C26.2962 33.9616 26.4613 35.6572 25.6906 37.078ZM39.7316 36.1218C38.5551 40.1461 31.9957 40.2767 29.3745 37.6179C28.8206 36.9921 28.4735 36.6652 28.1431 35.9428C29.536 35.1415 29.536 35.1415 30.8915 34.3573C31.6277 35.489 32.3084 36.1114 33.5332 36.366C35.1947 36.5689 36.8664 35.998 36.4915 34.2333C36.1061 32.792 33.0892 32.4414 31.036 30.9001C28.9516 29.5002 28.463 26.0985 30.176 24.1549C30.7469 23.436 31.7205 22.8995 32.742 22.6416L33.8081 22.5037C35.855 22.4624 37.1343 23.0029 38.0735 24.0517C38.3348 24.3164 38.5481 24.602 38.9471 25.2209C37.8567 25.9158 37.8602 25.9092 36.2984 26.9203C35.9648 26.2017 35.4112 25.7508 34.8262 25.5548C33.9179 25.2796 32.7727 25.5788 32.5351 26.5385C32.4527 26.8342 32.4697 27.1094 32.6007 27.5979C32.9687 28.437 34.2035 28.8018 35.3112 29.3109C38.4999 30.6041 39.5766 31.9908 39.8414 33.6413C40.0964 35.0623 39.7798 35.9842 39.7316 36.1218Z" fill="#F0DB4F"/>
</svg>
