<svg width="50" height="50" viewBox="0 0 50 50" fill="none" xmlns="http://www.w3.org/2000/svg">
<rect width="50" height="50" rx="8" fill="#151515"/>
<path d="M5.62531 28.2681H6.90906V23.1984L8.89656 27.6181C9.13094 28.1531 9.45187 28.3421 10.0816 28.3421C10.7112 28.3421 11.02 28.1531 11.2544 27.6181L13.2419 23.1984V28.2681H14.5256V23.2068C14.5256 22.7131 14.3281 22.474 13.9206 22.3509C12.9453 22.0465 12.2909 22.31 11.9947 22.9684L10.0444 27.3303L8.15594 22.9681C7.87187 22.31 7.20531 22.0465 6.23 22.3506C5.8225 22.474 5.625 22.7128 5.625 23.2065V28.2681H5.62531ZM15.5934 24.1412H16.8769V26.9343C16.865 27.0859 16.9256 27.4421 17.6287 27.4534C17.9875 27.459 20.3981 27.4534 20.4206 27.4534V24.1275H21.7072C21.7131 24.1275 21.7059 28.6631 21.7059 28.6818C21.7128 29.8006 20.3181 30.0434 19.675 30.0621H15.6212V29.1984C15.6281 29.1984 19.6722 29.1993 19.6822 29.1981C20.5088 29.1109 20.4109 28.7003 20.4106 28.5621V28.2253H17.6822C16.4128 28.2137 15.6041 27.6596 15.5938 27.0221C15.5931 26.9637 15.6216 24.1693 15.5934 24.1412V24.1412Z" fill="#00618A"/>
<path d="M22.6968 28.2681H26.388C26.8202 28.2681 27.2402 28.1778 27.5733 28.0215C28.1287 27.7665 28.4002 27.4209 28.4002 26.9678V26.0296C28.4002 25.6593 28.0918 25.3134 27.4868 25.0834C27.1658 24.9596 26.7705 24.8943 26.3877 24.8943H24.8321C24.3137 24.8943 24.0668 24.7381 24.0052 24.3925C23.993 24.3512 23.993 24.3184 23.993 24.2771V23.6928C23.993 23.66 23.993 23.6268 24.0052 23.5859C24.0668 23.3225 24.2027 23.2484 24.6596 23.2071L24.783 23.199H28.4496V22.3434H24.8449C24.3265 22.3434 24.0549 22.3762 23.808 22.4503C23.0427 22.689 22.709 23.0675 22.709 23.7259V24.4746C22.709 25.0509 23.3637 25.5446 24.4621 25.66C24.5858 25.6678 24.709 25.6765 24.8324 25.6765H26.1658C26.2152 25.6765 26.2646 25.6765 26.3018 25.6843C26.7093 25.7171 26.8818 25.7915 27.0055 25.9393C27.0372 25.9686 27.0624 26.0043 27.0794 26.044C27.0963 26.0837 27.1047 26.1265 27.104 26.1696V26.9187C27.104 27.009 27.0424 27.1243 26.919 27.2231C26.808 27.3218 26.6227 27.3878 26.3758 27.4043L26.2399 27.4125H22.6968V28.2681ZM36.4096 26.7787C36.4096 27.659 37.064 28.1528 38.3846 28.2518C38.508 28.26 38.6315 28.2681 38.7549 28.2681H42.1005V27.4125H38.7305C37.9774 27.4125 37.6937 27.2231 37.6937 26.7703V22.3428H36.4099V26.7787H36.4096ZM29.2196 26.8231V23.7715C29.2196 22.9965 29.764 22.5262 30.8402 22.3778C30.9549 22.3613 31.0706 22.3531 31.1865 22.3531H33.6237C33.7474 22.3531 33.8587 22.3612 33.9821 22.3778C35.0583 22.5262 35.603 22.9962 35.603 23.7715V26.8231C35.603 27.4525 35.3718 27.7887 34.839 28.0081L36.104 29.1496H34.613L33.5899 28.2259L32.5599 28.2912H31.1865C30.9313 28.2896 30.6776 28.2535 30.4321 28.184C29.6155 27.9615 29.2196 27.5325 29.2196 26.8231V26.8231ZM30.6052 26.749C30.6052 26.7903 30.6174 26.8318 30.6299 26.8812C30.704 27.2359 31.0383 27.4337 31.5452 27.4337H32.7115L31.6402 26.4665H33.1312L34.0652 27.3103C34.2377 27.2181 34.3508 27.0781 34.3905 26.8978C34.4027 26.8565 34.4027 26.8153 34.4027 26.774V23.8465C34.4027 23.8137 34.4027 23.7721 34.3905 23.7309C34.3162 23.4009 33.9821 23.2115 33.4874 23.2115H31.5449C30.9762 23.2115 30.6049 23.459 30.6049 23.8465V26.749H30.6052Z" fill="#E48E00"/>
<path d="M43.23 20.9225C42.4409 20.9009 41.8381 20.9744 41.3225 21.1916C41.1759 21.2534 40.9425 21.255 40.9187 21.4384C40.999 21.5231 41.0115 21.6491 41.0756 21.7528C41.1987 21.9519 41.4065 22.2187 41.5918 22.3584C41.794 22.5112 42.0028 22.675 42.2203 22.8075C42.6062 23.0431 43.0375 23.1775 43.4097 23.4131C43.6287 23.5525 43.8462 23.7275 44.0603 23.8847C44.1662 23.9619 44.2368 24.0828 44.3747 24.1312V24.1091C44.3025 24.0172 44.2837 23.8909 44.2175 23.7947L43.9256 23.5028C43.6403 23.1241 43.2784 22.7919 42.8931 22.5156C42.5862 22.2953 41.8993 21.9975 41.7712 21.6403L41.7487 21.6181C41.9662 21.5934 42.2212 21.5147 42.4218 21.4609C42.7593 21.3703 43.0609 21.3937 43.4093 21.3037L43.8806 21.1687V21.0794C43.7047 20.8988 43.5787 20.6594 43.3868 20.4959C42.8847 20.0681 42.3359 19.6406 41.7712 19.2837C41.4581 19.0862 41.0709 18.9578 40.7387 18.7903C40.6275 18.7337 40.4312 18.7047 40.3572 18.6106C40.1825 18.3884 40.0878 18.1069 39.9531 17.8478C39.6654 17.2882 39.396 16.7193 39.1453 16.1422C38.9753 15.7531 38.864 15.3694 38.6518 15.0203C37.6328 13.345 36.5359 12.3337 34.8368 11.34C34.4753 11.1284 34.04 11.0453 33.5803 10.9362L32.8397 10.8912C32.6893 10.8284 32.5325 10.6441 32.3909 10.5547C31.8278 10.1991 30.384 9.42562 29.9672 10.4428C29.704 11.0847 30.3609 11.7109 30.5956 12.0362C30.7603 12.2644 30.9715 12.52 31.0893 12.7766C31.1668 12.9453 31.18 13.1144 31.2465 13.2928C31.4093 13.7322 31.5515 14.2106 31.7625 14.6166C31.869 14.8222 31.9868 15.0387 32.1215 15.2225C32.204 15.335 32.3459 15.385 32.3681 15.5591C32.2297 15.7528 32.2215 16.0541 32.1437 16.2994C31.7931 17.4053 31.9253 18.78 32.4356 19.5984C32.5922 19.85 32.9609 20.3887 33.4678 20.1819C33.9112 20.0012 33.8125 19.4416 33.9393 18.9475C33.9681 18.8359 33.9503 18.7534 34.0065 18.6784V18.7009L34.4106 19.5087C34.7097 19.9903 35.24 20.4931 35.6897 20.8328C35.9228 21.0087 36.1065 21.3134 36.4078 21.4162V21.3934H36.3856C36.3268 21.3025 36.2359 21.265 36.1609 21.1916C35.9853 21.0194 35.79 20.8056 35.645 20.6081C35.2359 20.0531 34.8747 19.4453 34.5453 18.8128C34.3881 18.5109 34.2515 18.1778 34.119 17.8703C34.0678 17.7519 34.0684 17.5725 33.9622 17.5116C33.8165 17.7366 33.6031 17.9187 33.4906 18.1847C33.3112 18.6097 33.2881 19.1281 33.2215 19.6656L33.1765 19.6878C32.8637 19.6125 32.754 19.2906 32.6378 19.0147C32.344 18.3169 32.2893 17.1928 32.5481 16.3894C32.615 16.1812 32.9172 15.5266 32.7947 15.3344C32.7362 15.1428 32.5434 15.0322 32.4359 14.8853C32.2949 14.6888 32.1745 14.4782 32.0768 14.2569C31.8362 13.7128 31.724 13.1019 31.4712 12.5516C31.35 12.2884 31.1456 12.0225 30.9775 11.7887C30.7915 11.5294 30.5831 11.3387 30.4387 11.0256C30.3875 10.9144 30.3178 10.7359 30.3937 10.6216C30.4178 10.5444 30.4525 10.5122 30.5287 10.4869C30.6587 10.3866 31.0212 10.5203 31.1568 10.5766C31.5168 10.7262 31.8172 10.8684 32.1222 11.0703C32.2684 11.1675 32.4162 11.355 32.5934 11.4069H32.7953C33.1112 11.4794 33.4653 11.4291 33.7603 11.5187C34.2822 11.6775 34.7497 11.9241 35.174 12.1922C36.4675 13.0091 37.5247 14.1716 38.2484 15.5584C38.3647 15.7819 38.4153 15.9947 38.5175 16.2316C38.7243 16.7091 38.985 17.2006 39.1906 17.6678C39.3959 18.1337 39.5962 18.6041 39.8865 18.9919C40.039 19.1956 40.6284 19.305 40.8962 19.4181C41.084 19.4975 41.3915 19.5803 41.5693 19.6872C41.909 19.8922 42.2384 20.1362 42.5568 20.3606C42.7159 20.4737 43.2056 20.7197 43.23 20.9225V20.9225ZM33.199 12.3728C33.063 12.3706 32.9272 12.3857 32.795 12.4178V12.44H32.8175C32.8959 12.6016 33.0343 12.7053 33.1315 12.8441L33.3562 13.3153L33.3784 13.2931C33.5175 13.1953 33.5809 13.0387 33.5803 12.7994C33.5243 12.7406 33.5162 12.6672 33.4681 12.5975C33.4043 12.5037 33.28 12.4512 33.199 12.3728V12.3728Z" fill="#00618A"/>
</svg>
