<svg width="50" height="50" viewBox="0 0 50 50" fill="none" xmlns="http://www.w3.org/2000/svg">
<rect width="50" height="50" rx="8" fill="#151515"/>
<path d="M37.9548 16.0574L26.2415 9.25611C25.5028 8.83536 24.541 8.83536 23.7965 9.25611L11.9581 16.0574C11.1957 16.496 10.6562 17.3202 10.6562 18.2018V31.7864C10.6562 32.668 11.2098 33.4925 11.9722 33.9335L15.0999 35.71C16.5948 36.4463 17.1232 36.4463 17.8034 36.4463C20.0169 36.4463 21.2812 35.1078 21.2812 32.7732V19.3618C21.2812 19.1724 21.1827 18.8906 20.9968 18.8906H19.5032C19.314 18.8906 18.8906 19.1724 18.8906 19.3616V32.773C18.8906 33.8078 17.9546 34.8377 16.2052 33.963L12.9733 32.1001C12.8607 32.039 12.7812 31.9161 12.7812 31.7864V18.2018C12.7812 18.0738 12.9287 17.9452 13.0421 17.8796L24.8422 11.09C24.9525 11.0276 25.1145 11.0276 25.2245 11.09L36.8806 17.878C36.9922 17.9452 36.9529 18.0698 36.9529 18.2018V31.7864C36.9529 31.9161 37.0015 32.0422 36.8912 32.1046L25.1809 38.8983C25.0805 38.9586 24.9559 38.9586 24.8459 38.8983L21.8425 37.1056C21.7519 37.053 21.6444 37.0341 21.5575 37.0827C20.7218 37.5563 20.5678 37.6193 19.7839 37.891C19.5911 37.9582 19.3066 38.0748 19.8928 38.4034L23.8235 40.7287C24.1988 40.9454 24.6245 41.0596 25.0579 41.0597C25.4941 41.0597 25.9212 40.9465 26.2976 40.7287L37.9545 33.9335C38.7169 33.4893 39.0781 32.668 39.0781 31.7864V18.2018C39.0781 17.3202 38.7169 16.4981 37.9548 16.0574V16.0574ZM28.6948 29.6338C25.5801 29.6338 24.894 28.7745 24.6653 27.2256C24.6388 27.0588 24.4972 26.8593 24.3274 26.8593H22.8051C22.6168 26.8593 22.4654 27.0878 22.4654 27.2753C22.4654 29.2585 23.5436 31.6613 28.6951 31.6613C32.4242 31.6613 34.5622 30.2123 34.5622 27.648C34.5622 25.1054 32.8444 24.4382 29.228 23.9595C25.5724 23.4763 25.2011 23.2322 25.2011 22.3759C25.2011 21.6698 25.5156 20.7282 28.2223 20.7282C30.6408 20.7282 31.5322 21.2472 31.8991 22.8774C31.9304 23.0306 32.0704 23.1406 32.2285 23.1406H33.7569C33.8509 23.1406 33.9407 23.1026 34.0065 23.0354C34.0703 22.9632 34.104 22.8726 34.0955 22.7754C33.8589 19.9682 31.9939 18.66 28.222 18.66C24.8669 18.66 22.8654 20.0769 22.8654 22.4518C22.8654 25.0279 24.8568 25.7397 28.0775 26.0582C31.9304 26.4359 32.23 26.9991 32.23 27.7569C32.23 29.0731 31.1734 29.6338 28.6948 29.6338Z" fill="#83CD29"/>
</svg>
