<svg width="50" height="50" viewBox="0 0 50 50" fill="none" xmlns="http://www.w3.org/2000/svg">
<rect width="50" height="50" rx="8" fill="#151515"/>
<path d="M24.5001 27.7953C26.3201 27.7953 27.7955 26.32 27.7955 24.5C27.7955 22.6801 26.3201 21.2047 24.5001 21.2047C22.6802 21.2047 21.2048 22.6801 21.2048 24.5C21.2048 26.32 22.6802 27.7953 24.5001 27.7953Z" fill="#61DAFB"/>
<path d="M37.0165 19.0656C36.3806 18.8344 35.7157 18.6032 35.022 18.4008C35.1954 17.7071 35.3399 17.0133 35.4556 16.3485C36.0626 12.5328 35.3978 9.84456 33.5478 8.80393C32.9985 8.48596 32.3915 8.34143 31.6978 8.34143C29.6743 8.34143 27.1017 9.84456 24.5001 12.3594C21.8985 9.84456 19.3259 8.34143 17.3024 8.34143C16.6087 8.34143 16.0017 8.48596 15.4524 8.80393C13.6024 9.87346 12.9376 12.5617 13.5446 16.3485C13.6603 17.0133 13.8048 17.7071 13.9782 18.4008C13.2845 18.6032 12.6196 18.8055 11.9837 19.0656C8.37041 20.4531 6.40479 22.361 6.40479 24.5C6.40479 26.6391 8.39932 28.5469 11.9837 29.9344C12.6196 30.1657 13.2845 30.3969 13.9782 30.5992C13.8048 31.293 13.6603 31.9867 13.5446 32.6516C12.9376 36.4672 13.6024 39.1555 15.4524 40.1961C16.0017 40.5141 16.6087 40.6586 17.3024 40.6586C19.3548 40.6586 21.9274 39.1555 24.5001 36.6406C27.1017 39.1555 29.6743 40.6586 31.6978 40.6586C32.3915 40.6586 32.9985 40.5141 33.5478 40.1961C35.3978 39.1266 36.0626 36.4383 35.4556 32.6516C35.3399 31.9867 35.1954 31.293 35.022 30.5992C35.7157 30.3969 36.3806 30.1946 37.0165 29.9344C40.6298 28.5469 42.5954 26.6391 42.5954 24.5C42.5954 22.361 40.6298 20.4531 37.0165 19.0656V19.0656ZM32.7384 10.2492C33.9235 10.943 34.3282 13.0821 33.8368 16.1172C33.7501 16.7242 33.6056 17.3602 33.4321 18.025C31.929 17.6781 30.3392 17.4469 28.6626 17.3024C27.6798 15.9149 26.6681 14.6719 25.6563 13.5446C27.7954 11.4344 29.9634 9.98909 31.7267 9.98909C32.1024 9.98909 32.4493 10.0758 32.7384 10.2492V10.2492ZM29.5009 27.3906C28.9806 28.3156 28.3735 29.2406 27.7376 30.1656C26.6681 30.2524 25.5985 30.2813 24.5001 30.2813C23.3728 30.2813 22.3032 30.2524 21.2626 30.1656C20.6267 29.2406 20.0485 28.3156 19.5282 27.3906C18.979 26.4367 18.4587 25.4539 17.9962 24.5C18.4587 23.5461 18.979 22.5633 19.5282 21.6094C20.0485 20.6844 20.6556 19.7594 21.2915 18.8344C22.361 18.7477 23.4306 18.7188 24.529 18.7188C25.6563 18.7188 26.7259 18.7477 27.7665 18.8344C28.4024 19.7594 28.9806 20.6844 29.5009 21.6094C30.0501 22.5633 30.5704 23.5461 31.0329 24.5C30.5415 25.4539 30.0501 26.4078 29.5009 27.3906ZM31.9001 26.4367C32.3337 27.4485 32.6806 28.4313 32.9985 29.4141C32.0157 29.6453 30.9751 29.8188 29.8767 29.9633C30.2235 29.4141 30.5993 28.836 30.9173 28.2289C31.2642 27.6219 31.5821 27.0149 31.9001 26.4367ZM24.5001 34.2703C23.8063 33.5188 23.1415 32.7094 22.5056 31.8711C23.1704 31.9 23.8353 31.9289 24.5001 31.9289C25.1649 31.9289 25.8298 31.9 26.4946 31.8711C25.8587 32.7094 25.1938 33.5188 24.5001 34.2703ZM19.1235 29.9344C18.0251 29.7899 16.9845 29.6164 16.0017 29.3852C16.3196 28.4313 16.6665 27.4196 17.1001 26.4078C17.4181 26.986 17.736 27.593 18.0829 28.1711C18.4298 28.8071 18.7767 29.3563 19.1235 29.9344V29.9344ZM17.1001 22.5633C16.6665 21.5516 16.3196 20.5688 16.0017 19.586C16.9845 19.3547 18.0251 19.1813 19.1235 19.0367C18.7767 19.586 18.4009 20.1641 18.0829 20.7711C17.736 21.3781 17.4181 21.9852 17.1001 22.5633V22.5633ZM24.5001 14.7297C25.1938 15.4813 25.8587 16.2906 26.4946 17.1289C25.8298 17.1 25.1649 17.0711 24.5001 17.0711C23.8353 17.0711 23.1704 17.1 22.5056 17.1289C23.1415 16.2906 23.8063 15.4813 24.5001 14.7297ZM30.9173 20.8L29.8767 19.0656C30.9751 19.2102 32.0157 19.3836 32.9985 19.6149C32.6806 20.5688 32.3337 21.5805 31.9001 22.5922C31.5821 21.9852 31.2642 21.3781 30.9173 20.8ZM15.1634 16.1172C14.672 13.0821 15.0767 10.943 16.2618 10.2492C16.5509 10.0758 16.8978 9.98909 17.2735 9.98909C19.0079 9.98909 21.1759 11.4055 23.3438 13.5446C22.3321 14.643 21.3204 15.9149 20.3376 17.3024C18.661 17.4469 17.0712 17.7071 15.5681 18.025C15.3946 17.3602 15.279 16.7242 15.1634 16.1172V16.1172ZM8.02354 24.5C8.02354 23.1414 9.67119 21.6961 12.5618 20.6266C13.1399 20.3953 13.7759 20.193 14.4118 20.0196C14.8743 21.4649 15.4524 22.9969 16.1462 24.5289C15.4524 26.061 14.8454 27.5641 14.4118 29.0094C10.4228 27.8531 8.02354 26.1188 8.02354 24.5ZM16.2618 38.7508C15.0767 38.0571 14.672 35.918 15.1634 32.8828C15.2501 32.2758 15.3946 31.6399 15.5681 30.975C17.0712 31.3219 18.661 31.5532 20.3376 31.6977C21.3204 33.0852 22.3321 34.3282 23.3438 35.4555C21.2048 37.5657 19.0368 39.011 17.2735 39.011C16.8978 39.011 16.5509 38.9242 16.2618 38.7508ZM33.8368 32.8828C34.3282 35.918 33.9235 38.0571 32.7384 38.7508C32.4493 38.9242 32.1024 39.011 31.7267 39.011C29.9923 39.011 27.8243 37.5946 25.6563 35.4555C26.6681 34.3571 27.6798 33.0852 28.6626 31.6977C30.3392 31.5532 31.929 31.293 33.4321 30.975C33.6056 31.6399 33.7212 32.2758 33.8368 32.8828V32.8828ZM36.4384 28.3735C35.8603 28.6047 35.2243 28.8071 34.5884 28.9805C34.1259 27.5352 33.5478 26.0032 32.854 24.4711C33.5478 22.9391 34.1548 21.436 34.5884 19.9907C38.5774 21.1469 40.9767 22.8813 40.9767 24.5C40.9767 25.8586 39.3001 27.3039 36.4384 28.3735Z" fill="#61DAFB"/>
</svg>
