<svg width="187" height="25" viewBox="0 0 187 25" fill="none" xmlns="http://www.w3.org/2000/svg">
<path fill-rule="evenodd" clip-rule="evenodd" d="M6.7588 21.4426C6.77114 21.6016 6.76333 21.7661 6.80552 21.9171C6.82349 21.9808 6.94614 22.0154 7.0213 22.0632L7.11896 22.1258C7.08224 22.1472 7.04567 22.1866 7.00849 22.1871C6.71695 22.1921 6.42534 22.1922 6.1338 22.1874C6.09505 22.1868 6.05708 22.1504 6.01895 22.1305C6.04989 22.1082 6.07958 22.0694 6.11224 22.0668C6.30771 22.0504 6.36724 21.9316 6.3663 21.756C6.36458 21.4332 6.36536 21.1101 6.36677 20.7869C6.36755 20.6069 6.31646 20.4755 6.10442 20.4674C6.07505 20.4661 6.04724 20.4211 6.0188 20.3966C6.04724 20.3793 6.07599 20.3465 6.10411 20.3469C6.47755 20.3515 6.85255 20.3432 7.22396 20.3746C7.51661 20.3994 7.70942 20.6019 7.72927 20.8354C7.75083 21.0915 7.61942 21.2672 7.32224 21.3801L7.20833 21.4226C7.39974 21.6035 7.56927 21.7804 7.75771 21.9338C7.8413 22.0021 7.95974 22.0427 8.06849 22.0615C8.28614 22.0986 8.40427 22.0051 8.41021 21.7893C8.41974 21.441 8.41521 21.0922 8.41192 20.7438C8.41036 20.5841 8.34177 20.4786 8.16364 20.4699C8.13005 20.4683 8.09802 20.4304 8.06536 20.4093C8.10271 20.3874 8.14005 20.3468 8.17708 20.3469C8.55708 20.3501 8.9388 20.3383 9.3163 20.3721C9.96052 20.4293 10.3194 20.9654 10.131 21.5577C10.0161 21.919 9.74114 22.1232 9.38739 22.1472C8.76896 22.1894 8.14708 22.1808 7.52661 22.1852C7.47724 22.1855 7.4163 22.1319 7.37911 22.0879C7.2363 21.9183 7.10161 21.7421 6.96224 21.5697C6.92005 21.5176 6.87302 21.4696 6.82817 21.4196L6.7588 21.4426V21.4426ZM8.80864 20.5255C8.80864 20.9607 8.80333 21.3824 8.81427 21.8036C8.81599 21.8683 8.87833 21.966 8.93614 21.9891C9.1638 22.0799 9.53177 21.9316 9.63458 21.7013C9.77224 21.393 9.78896 21.0685 9.60286 20.776C9.41927 20.4874 9.11349 20.5161 8.80864 20.5255V20.5255ZM6.77411 21.2382C6.9713 21.2432 7.18864 21.2871 7.27286 21.0705C7.32005 20.9491 7.30942 20.7608 7.24427 20.6502C7.14536 20.4821 6.94646 20.5115 6.77396 20.5327L6.77411 21.2382V21.2382Z" fill="#337BA2"/>
<path fill-rule="evenodd" clip-rule="evenodd" d="M15.1202 21.1483C15.2505 21.1202 15.3797 21.1243 15.4637 21.0644C15.5341 21.0144 15.5516 20.89 15.6055 20.7697C15.6366 20.8255 15.6658 20.854 15.6665 20.8829C15.6704 21.0985 15.6712 21.3143 15.6665 21.5299C15.6657 21.5636 15.6312 21.5966 15.6122 21.63C15.591 21.6122 15.5593 21.5988 15.5499 21.576C15.4354 21.2993 15.436 21.2991 15.1057 21.3286C15.154 21.5446 14.9865 21.8207 15.2447 21.9627C15.3765 22.035 15.589 22.0207 15.743 21.9733C15.8744 21.9333 15.9743 21.7904 16.0887 21.6924V22.1761C16.0254 22.1818 15.9774 22.1896 15.9291 22.1896C15.2821 22.1905 14.6351 22.1877 13.9882 22.1925C13.8766 22.1935 13.8012 22.1654 13.733 22.0718C13.5991 21.8871 13.4519 21.7121 13.3072 21.5355C13.271 21.4913 13.2238 21.4561 13.1477 21.3852C13.1477 21.5655 13.1412 21.6947 13.1496 21.823C13.1583 21.9571 13.2229 22.046 13.3712 22.0627C13.4147 22.0677 13.4538 22.1135 13.4949 22.1408C13.4526 22.1572 13.4105 22.1874 13.368 22.1882C13.0826 22.1922 12.7972 22.1921 12.5118 22.1883C12.468 22.1877 12.4246 22.1613 12.3765 22.1454L12.4008 22.098C12.7515 21.9565 12.7524 21.9565 12.7521 21.5499C12.7519 21.2962 12.7498 21.0426 12.746 20.789C12.7433 20.6138 12.6958 20.4749 12.4821 20.4674C12.4513 20.4663 12.4221 20.4225 12.3919 20.3985C12.4272 20.3808 12.4627 20.3477 12.4979 20.348C12.859 20.3515 13.2221 20.3396 13.5807 20.373C13.9732 20.4096 14.2158 20.7369 14.0701 21.0382C13.9904 21.2027 13.8063 21.3168 13.6443 21.4785C13.798 21.6191 13.9751 21.8213 14.1897 21.9683C14.493 22.1761 14.7004 22.0575 14.708 21.6952C14.7144 21.391 14.7069 21.0865 14.7057 20.7819C14.7051 20.6015 14.6493 20.4704 14.4374 20.4674C14.4085 20.4669 14.3801 20.4361 14.3458 20.4158C14.456 20.3346 15.5176 20.305 15.9783 20.364L16.008 20.8661L15.956 20.8874C15.8488 20.7754 15.8621 20.5438 15.6404 20.543C15.471 20.5422 15.3016 20.5244 15.1197 20.5135C15.1202 20.7254 15.1202 20.9182 15.1202 21.1483V21.1483ZM13.1441 21.2368C13.5519 21.2532 13.7138 21.1425 13.7041 20.8674C13.6946 20.6021 13.5174 20.495 13.1441 20.536V21.2368Z" fill="#FFFCF2"/>
<path fill-rule="evenodd" clip-rule="evenodd" d="M1.80535 21.3567C1.96098 20.8962 2.11457 20.4353 2.27457 19.9764C2.2966 19.9132 2.35051 19.8612 2.38973 19.8039C2.42848 19.8629 2.48145 19.9171 2.50363 19.982C2.6491 20.4068 2.78754 20.8337 2.92895 21.2599C2.9402 21.2942 2.95473 21.3271 2.98754 21.4114C3.13254 20.9718 3.26676 20.582 3.38816 20.1881C3.43035 20.0517 3.37551 19.9531 3.21676 19.9353C3.16441 19.9292 3.11363 19.9087 3.05254 19.8924C3.15816 19.7754 3.98332 19.7668 4.11926 19.8756C4.08238 19.8931 4.05301 19.9179 4.02269 19.9192C3.76488 19.9292 3.64551 20.0906 3.57207 20.3131C3.37551 20.9084 3.1752 21.5023 2.97566 22.0967C2.95488 22.1584 2.92879 22.2182 2.90504 22.2789L2.83926 22.2835L2.28004 20.5928L1.71457 22.2784L1.65926 22.2818C1.63035 22.2192 1.59488 22.1584 1.57379 22.0932C1.39145 21.5337 1.21145 20.9734 1.03098 20.4134C0.953633 20.1729 0.876289 19.9339 0.560352 19.9185C0.539727 19.9176 0.52082 19.8828 0.500977 19.8639C0.525664 19.8435 0.550352 19.8056 0.575352 19.8053C0.930352 19.8015 1.28566 19.8015 1.64066 19.8054C1.66535 19.8056 1.68957 19.844 1.7141 19.8646C1.6877 19.8843 1.66426 19.9129 1.63473 19.922C1.35035 20.0079 1.32988 20.0409 1.41941 20.3167C1.53238 20.6656 1.64879 21.0131 1.76379 21.3614L1.80535 21.3567V21.3567Z" fill="#3179A1"/>
<path fill-rule="evenodd" clip-rule="evenodd" d="M10.2319 19.8829C10.2755 19.8452 10.2999 19.8057 10.3237 19.8062C10.7857 19.813 11.2515 19.7916 11.7087 19.8447C12.1412 19.8949 12.3807 20.3008 12.2502 20.6821C12.1333 21.0241 11.8451 21.1312 11.519 21.1608C11.3813 21.1735 11.2415 21.1629 11.0777 21.1629C11.0922 21.3899 11.0996 21.5972 11.1207 21.8032C11.1383 21.9772 11.2555 22.0469 11.4212 22.061C11.4585 22.0643 11.4926 22.106 11.528 22.1301C11.489 22.1497 11.4502 22.1863 11.4108 22.1868C11.0685 22.1913 10.7258 22.1912 10.3835 22.1871C10.3424 22.1866 10.3018 22.1529 10.261 22.1346C10.2951 22.1088 10.3285 22.0622 10.3635 22.0608C10.5921 22.0521 10.6779 21.9102 10.6807 21.7116C10.6876 21.2302 10.6869 20.7488 10.681 20.2674C10.6785 20.0627 10.5796 19.9318 10.3572 19.9227C10.3241 19.9215 10.2913 19.9024 10.2319 19.8829V19.8829ZM11.0949 20.9307C11.514 20.9741 11.6735 20.9341 11.7744 20.7483C11.8757 20.5621 11.876 20.3672 11.7563 20.1912C11.5908 19.9476 11.3377 20.0196 11.0949 20.0108V20.9307Z" fill="#DCDCDC"/>
<path fill-rule="evenodd" clip-rule="evenodd" d="M4.85565 22.2599C4.48128 22.2437 4.17628 22.1262 3.95034 21.8463C3.62956 21.4491 3.67831 20.9098 4.06143 20.5663C4.47471 20.196 5.158 20.1801 5.58221 20.5396C5.8694 20.7832 6.0055 21.0916 5.91206 21.4698C5.80659 21.8963 5.50565 22.1248 5.09675 22.2285C5.01143 22.2499 4.92143 22.2518 4.85565 22.2599V22.2599ZM5.56565 21.2835L5.53065 21.2606C5.50737 21.1498 5.49378 21.0357 5.45909 20.9285C5.35878 20.6206 5.14878 20.4684 4.83987 20.4677C4.53206 20.4671 4.32503 20.6201 4.2244 20.9313C4.13503 21.2081 4.14659 21.4823 4.28425 21.7407C4.48971 22.1263 5.03878 22.1987 5.30753 21.8557C5.43284 21.6959 5.4819 21.476 5.56565 21.2835V21.2835Z" fill="#3279A1"/>
<path fill-rule="evenodd" clip-rule="evenodd" d="M19.1795 20.3619L19.319 20.2397V20.9235L19.2785 20.954C19.2459 20.9079 19.2007 20.8662 19.1824 20.8147C19.0901 20.5562 18.891 20.4158 18.6638 20.484C18.5859 20.5072 18.4921 20.5854 18.4713 20.6574C18.4543 20.7162 18.5159 20.8324 18.5762 20.8721C18.7337 20.9758 18.9091 21.0527 19.0784 21.1382C19.4465 21.3244 19.578 21.5827 19.4535 21.8782C19.3271 22.1783 18.9437 22.3337 18.6001 22.2177C18.5054 22.1855 18.4177 22.1327 18.3301 22.091L18.1962 22.2669L18.137 22.2488C18.137 22.018 18.1355 21.7872 18.1393 21.5565C18.1396 21.5341 18.1729 21.5124 18.1909 21.4904C18.219 21.5244 18.2609 21.5544 18.2732 21.5935C18.3549 21.8522 18.5123 22.0241 18.7927 22.0529C18.9526 22.0693 19.1088 22.0496 19.1643 21.8674C19.2149 21.7007 19.0987 21.6066 18.9738 21.5355C18.8365 21.4574 18.6913 21.3935 18.5507 21.3215C18.489 21.2897 18.426 21.2583 18.3705 21.2176C18.1741 21.0727 18.0966 20.864 18.1548 20.6522C18.2066 20.463 18.3927 20.3027 18.623 20.296C18.7935 20.2912 18.966 20.3351 19.1795 20.3619V20.3619ZM16.6374 22.0849C16.6115 22.1365 16.5971 22.1797 16.5704 22.2132C16.5543 22.2332 16.5148 22.2522 16.4938 22.2457C16.474 22.2394 16.4529 22.1997 16.4524 22.1744C16.4491 21.9715 16.4491 21.7683 16.4526 21.5657C16.4529 21.5408 16.4804 21.5166 16.4954 21.4921C16.5241 21.5104 16.5651 21.5222 16.5793 21.5487C16.6057 21.5977 16.6118 21.6574 16.6349 21.7087C16.7393 21.9402 16.9507 22.0851 17.1932 22.0499C17.2946 22.0354 17.4198 21.9583 17.4701 21.8721C17.5379 21.7563 17.4566 21.6371 17.3429 21.5713C17.1899 21.4829 17.0315 21.4033 16.8727 21.3258C16.5138 21.1507 16.3624 20.8615 16.491 20.5885C16.6188 20.3171 17.0113 20.2041 17.3393 20.3454C17.3793 20.3626 17.4173 20.3844 17.4487 20.4007L17.6171 20.2622C17.6348 20.3118 17.646 20.3288 17.6462 20.3458C17.6474 20.5358 17.647 20.7257 17.647 20.9155L17.5974 20.9487C17.5645 20.9065 17.5187 20.8691 17.5007 20.8215C17.4112 20.5821 17.2695 20.4494 17.0616 20.4747C16.9641 20.4865 16.8399 20.5535 16.792 20.6338C16.7216 20.7518 16.8232 20.8465 16.9302 20.904C17.0807 20.9851 17.2348 21.059 17.3874 21.1357C17.7652 21.3252 17.8982 21.5885 17.7677 21.8894C17.6407 22.1826 17.2449 22.3343 16.9057 22.214C16.8176 22.1829 16.7359 22.1327 16.6374 22.0849V22.0849Z" fill="white"/>
<path fill-rule="evenodd" clip-rule="evenodd" d="M10.1969 2.71801C6.01239 2.64332 2.51599 6.03879 2.51489 10.1563C2.51364 14.3922 5.84896 17.7718 10.0269 17.7655C14.166 17.7594 17.5163 14.3925 17.5163 10.2394C17.5161 6.15379 14.1811 2.7891 10.1969 2.71801ZM10.0175 17.3878C6.06036 17.3888 2.87786 14.1802 2.87802 10.1899C2.87817 6.30238 6.11005 3.08363 10.0146 3.08222C13.9883 3.08097 17.1544 6.30941 17.1532 10.3614C17.1519 14.1869 13.9021 17.3871 10.0175 17.3878V17.3878ZM13.8293 8.11488C13.674 7.85894 13.483 7.61066 13.3952 7.3316C13.2952 7.0141 13.2122 6.65269 13.2652 6.33441C13.3552 5.79472 13.7691 5.52676 14.3296 5.47551C11.2633 2.62972 6.44489 3.64832 4.66942 6.74035C5.35286 6.70863 6.00536 6.66722 6.65833 6.65847C6.78192 6.65676 6.98646 6.76113 7.01552 6.85801C7.08052 7.07441 6.89864 7.14988 6.70521 7.16472C6.50192 7.18066 6.29833 7.19582 6.06224 7.21379L8.39583 14.166C8.45193 14.0743 8.47505 14.0485 8.48521 14.0183C8.91677 12.7285 9.35083 11.4394 9.77146 10.1458C9.80989 10.0278 9.79083 9.8716 9.74864 9.75035C9.52614 9.10801 9.25958 8.47957 9.06443 7.82941C8.93083 7.38426 8.7538 7.09629 8.22771 7.14785C8.13802 7.1566 8.0288 6.96379 7.92833 6.8641C8.04974 6.79176 8.17021 6.65847 8.29271 6.6566C9.3641 6.64019 10.4357 6.64051 11.5071 6.65754C11.6299 6.65957 11.7504 6.79644 11.8719 6.87066C11.7655 6.96785 11.674 7.11347 11.5496 7.15097C11.3502 7.21113 11.1291 7.19972 10.8905 7.22097L13.2269 14.1716C13.581 12.996 13.9104 11.9163 14.2304 10.8341C14.5163 9.86816 14.346 8.96582 13.8293 8.11488V8.11488ZM8.23724 16.2733C8.22286 16.315 8.22208 16.3613 8.21099 16.4307C9.53255 16.7969 10.8282 16.7705 12.1547 16.3236L10.1285 10.7736C9.47989 12.6586 8.85802 14.4658 8.23724 16.2733V16.2733ZM7.21614 16.0224L4.16333 7.64801C2.78614 10.3382 3.8338 14.4427 7.21614 16.0224ZM15.7243 7.36566C15.6821 7.83347 15.7115 8.35426 15.5772 8.82847C15.2611 9.94597 14.8747 11.0443 14.5027 12.1455C14.0983 13.3424 13.6777 14.5339 13.2641 15.7278C15.2074 14.576 16.2752 12.8758 16.4452 10.6411C16.5421 9.36926 16.1033 7.60801 15.7243 7.36566V7.36566Z" fill="#F1F1F1"/>
<path d="M61.2109 9.16027C60.7617 9.12121 59.9023 9.35558 59.5117 11.2696C59.5117 12.422 59.7852 13.1251 60.2148 13.379C61.0156 13.6134 61.9531 12.5392 61.9531 11.3868C61.9922 10.5861 62.0313 9.58996 61.2109 9.16027Z" fill="#FFFCF2"/>
<path d="M62.7148 5.03906H42.2852C41.0156 5.03906 40 6.05469 40 7.30469V15.1172C40 16.3672 41.0156 17.4023 42.2852 17.4023H62.7344C63.9844 17.4023 65.0195 16.3867 65.0195 15.1172V7.30469C65 6.05469 63.9844 5.03906 62.7148 5.03906V5.03906ZM48.5938 15.625C48.5938 15.625 47.2461 13.8477 46.9336 12.5C46.6211 11.1719 46.543 11.7773 46.543 11.7773C46.543 11.7773 45.4687 14.1992 44.3555 15.7422C43.2422 17.2852 42.6953 14.9805 42.6953 14.9805C42.3047 14.5117 41.1914 7.69531 41.1914 7.69531C41.8164 5.95703 42.8906 7.38281 42.8906 7.38281L43.9648 12.9297C43.9648 12.9297 45.625 9.53125 46.1914 8.65234C46.7383 7.77344 47.6953 8.02734 47.7734 8.92578C47.8516 9.84375 48.7695 12.3242 48.7695 12.3242C48.8477 9.70703 49.9219 7.20703 50.0781 6.81641C50.2344 6.42578 51.9727 5.9375 51.6602 7.61719C50.8984 9.47266 50.1562 13.3984 50.3516 15.5469C49.8242 17.168 48.5938 15.625 48.5938 15.625V15.625ZM55.6055 14.7461C55.0977 14.9805 53.2031 16.2891 51.8555 13.3594C51.0156 10.4102 52.8906 8.24219 52.8906 8.24219C52.8906 8.24219 55.332 6.15234 56.9922 8.92578C58.3398 11.9727 56.1133 14.5117 55.6055 14.7461ZM61.8164 14.7461C61.3086 14.9805 59.4141 16.2891 58.0664 13.3594C57.2266 10.4102 59.1016 8.24219 59.1016 8.24219C59.1016 8.24219 61.5625 6.13281 63.2227 8.90625C64.5703 11.9727 62.3242 14.5117 61.8164 14.7461Z" fill="#FFFCF2"/>
<path d="M54.9805 9.16027C54.5312 9.12121 53.6719 9.35558 53.2813 11.2696C53.2813 12.422 53.5547 13.1251 53.9844 13.379C54.7852 13.6134 55.7227 12.5392 55.7227 11.3868C55.7813 10.5861 55.8203 9.58996 54.9805 9.16027ZM51.9727 17.4025L56.3281 19.9611L55.4102 17.4025L52.9102 16.6993L51.9727 17.4025Z" fill="#FFFCF2"/>
<path d="M95.3448 2.5H85L86.778 18.0476L95.3361 22.5H95.3466L103.917 18.0476L105.69 2.5H95.3448ZM102.815 12.2703C102.815 12.427 102.815 12.5677 102.68 12.6264L96.9604 15.4314L96.5377 15.6327L96.4906 15.0717V13.9693L96.5325 13.6897L96.7229 13.606L100.771 11.7573L97.0093 10.0476L95.406 13.2765L94.4541 15.1518L94.241 15.5561L93.883 15.3958L88.0093 12.63C87.9396 12.5993 87.8793 12.55 87.8348 12.4873C87.7902 12.4247 87.763 12.3509 87.7561 12.2738V11.2409C87.762 11.1642 87.7882 11.0906 87.8318 11.0279C87.8755 10.9651 87.935 10.9157 88.0041 10.8847L93.9423 8.08326L94.503 7.8268V9.5472L94.5449 9.78584L94.2724 9.91051L90.1838 11.7538L94 13.4688L95.406 10.6193L96.4906 8.36643L96.6879 7.96037L97.0041 8.12244L102.68 10.8811C102.808 10.9435 102.813 11.0841 102.813 11.2373L102.815 12.2703Z" fill="#F1F1F1"/>
<path d="M125.91 2.71997H145.47V22.2801H125.91V2.71997Z" fill="#F1F1F1"/>
<path d="M143.869 17.615C143.726 16.7227 143.144 15.9731 141.42 15.2742C140.821 14.9991 140.154 14.802 139.955 14.3483C139.884 14.0842 139.875 13.9355 139.92 13.7756C140.048 13.2569 140.667 13.0952 141.158 13.2439C141.474 13.3499 141.773 13.5934 141.954 13.982C142.798 13.4355 142.796 13.4391 143.385 13.0634C143.17 12.7289 143.054 12.5745 142.913 12.4314C142.406 11.8644 141.714 11.5724 140.608 11.5947L140.031 11.6692C139.479 11.8088 138.953 12.0986 138.644 12.4872C137.718 13.5378 137.982 15.3766 139.109 16.1333C140.219 16.9664 141.85 17.1559 142.058 17.935C142.261 18.8888 141.357 19.1975 140.459 19.0878C139.797 18.9502 139.429 18.6138 139.031 18.002C138.299 18.4259 138.299 18.4259 137.545 18.8591C137.724 19.2495 137.912 19.4263 138.211 19.7645C139.628 21.2017 143.174 21.1311 143.809 18.9558C143.835 18.8811 144.006 18.383 143.869 17.615V17.615ZM136.543 11.7099H134.714L134.706 16.4399C134.706 17.4458 134.758 18.368 134.594 18.6506C134.327 19.2066 133.633 19.1377 133.317 19.0299C132.995 18.8717 132.832 18.6469 132.642 18.3291C132.59 18.2378 132.551 18.1672 132.538 18.1617L131.051 19.0727C131.298 19.5803 131.662 20.0209 132.129 20.3072C132.826 20.7256 133.763 20.8539 134.743 20.6289C135.381 20.4431 135.931 20.0583 136.219 19.4725C136.636 18.7045 136.547 17.775 136.543 16.7469C136.552 15.0695 136.543 13.3925 136.543 11.7099V11.7099Z" fill="#323330"/>
<path d="M175.946 7.66235C170.539 7.66235 166.156 9.82829 166.156 12.5C166.156 15.1717 170.539 17.3377 175.946 17.3377C181.353 17.3377 185.737 15.1717 185.737 12.5C185.737 9.82829 181.353 7.66235 175.946 7.66235ZM173.399 13.4425C173.165 13.6556 172.906 13.7436 172.62 13.8342C172.334 13.925 171.97 13.9063 171.528 13.9063H170.526L170.248 15.4688H169.078L170.123 10.1563H172.373C173.049 10.1563 173.543 10.3461 173.854 10.6925C174.164 11.0389 174.257 11.5306 174.134 12.1514C174.082 12.4072 173.996 12.645 173.875 12.8569C173.749 13.0755 173.588 13.2732 173.399 13.4425V13.4425ZM176.814 13.9063L177.276 11.6531C177.328 11.3894 177.309 11.1934 177.218 11.0977C177.126 11.0017 176.932 10.9375 176.635 10.9375H175.707L175.109 13.9063H173.948L174.993 8.75001H176.153L175.876 10.1563H176.91C177.561 10.1563 178.01 10.2836 178.256 10.5049C178.503 10.7261 178.577 11.0292 178.479 11.5249L177.993 13.9063H176.814ZM183.266 12.1597C183.215 12.4155 183.128 12.6492 183.007 12.8609C182.886 13.073 182.727 13.2669 182.531 13.4425C182.297 13.6556 182.038 13.7436 181.752 13.8342C181.467 13.925 181.103 13.9063 180.66 13.9063H179.658L179.381 15.4688H178.211L179.255 10.1563H181.505C182.182 10.1563 182.676 10.3461 182.986 10.6925C183.296 11.0389 183.389 11.5391 183.266 12.1597V12.1597ZM181.061 10.9375H180.26L179.823 13.125H180.535C181.006 13.125 181.358 13.0797 181.589 12.9063C181.82 12.7331 181.975 12.4644 182.056 12.0592C182.134 11.67 182.099 11.3664 181.951 11.2064C181.802 11.0464 181.506 10.9375 181.061 10.9375V10.9375ZM171.929 10.9375H171.128L170.691 13.125H171.402C171.874 13.125 172.225 13.0797 172.456 12.9063C172.687 12.7331 172.843 12.4644 172.924 12.0592C173.001 11.67 172.966 11.3664 172.818 11.2064C172.67 11.0464 172.374 10.9375 171.929 10.9375Z" fill="#F1F1F1"/>
</svg>
